<?xml version="1.0" encoding="utf-8"?>
<!-- Generator: Adobe Illustrator 23.0.1, SVG Export Plug-In . SVG Version: 6.00 Build 0)  -->
<svg version="1.1" id="Capa_1" xmlns="http://www.w3.org/2000/svg" xmlns:xlink="http://www.w3.org/1999/xlink" x="0px" y="0px"
	 viewBox="0 0 1147 462.3" style="enable-background:new 0 0 1147 462.3;" xml:space="preserve">
<style type="text/css">
	.st0{enable-background:new    ;}
</style>
<g>
	<g>
		<g>
			<path d="M513.8,199.3l-86.9-139c-0.9-1.5-2.3-2.6-4-3.1L261.3,3.3c-1.5-0.5-3.2-0.5-4.7,0L95,57.2c-1.7,0.6-3.1,1.7-4,3.1
				l-86.9,139c-2.2,3.5-1.1,8.1,2.4,10.3l27.4,17.1v220.6h-9.2c-4.1,0-7.5,3.4-7.5,7.5s3.4,7.5,7.5,7.5h468.6c4.1,0,7.5-3.4,7.5-7.5
				s-3.4-7.5-7.5-7.5H484V226.8l27.4-17.1C514.9,207.4,516,202.8,513.8,199.3z M179.3,447.3l79.7-66.4l79.7,66.4H179.3z M166,438.8
				V303.5l81.2,67.7L166,438.8z M351.9,438.8l-81.2-67.7l33.3-27.7c3.2-2.7,3.6-7.4,1-10.6c-2.7-3.2-7.4-3.6-10.6-1L259,361.4
				L179.3,295h159.4l-17.6,14.6c-3.2,2.7-3.6,7.4-1,10.6c1.5,1.8,3.6,2.7,5.8,2.7c1.7,0,3.4-0.6,4.8-1.7l21.2-17.6V438.8z
				 M359.3,280h-210v-18.5h219.3V280H359.3L359.3,280z M481.5,210.7L404.9,88.3c-0.9-1.5-2.3-2.6-4-3.1L261.3,38.6
				c-1.5-0.5-3.2-0.5-4.7,0l-92,30.7c-3.9,1.3-6.1,5.6-4.7,9.5c1.3,3.9,5.6,6.1,9.5,4.7L259,53.6l134.7,44.9L469,219.1v228.2H366.9
				V295h9.2c4.1,0,7.5-3.4,7.5-7.5V254c0-4.1-3.4-7.5-7.5-7.5H141.8c-4.1,0-7.5,3.4-7.5,7.5v33.5c0,4.1,3.4,7.5,7.5,7.5h9.2v152.4
				H48.9V219.1l75.4-120.6l14.3-4.8c3.9-1.3,6.1-5.6,4.7-9.5c-1.3-3.9-5.6-6.1-9.5-4.7L117,85.1c-1.7,0.6-3.1,1.7-4,3.1L36.5,210.7
				l-15.7-9.8l81.5-130.3L259,18.3l156.7,52.2l81.5,130.3L481.5,210.7z"/>
		</g>
	</g>
</g>
<g>
	<g>
		<g>
			<path d="M317.5,104.2H200.4c-4.1,0-7.5,3.4-7.5,7.5v100.4c0,4.1,3.4,7.5,7.5,7.5h117.2c4.1,0,7.5-3.4,7.5-7.5V111.7
				C325,107.6,321.7,104.2,317.5,104.2z M310,204.6h-43.6v-59.4c0-4.1-3.4-7.5-7.5-7.5s-7.5,3.4-7.5,7.5v59.4h-43.6v-85.4H310V204.6
				z"/>
		</g>
	</g>
</g>
<g class="st0">
	<path d="M562.3,241.1c-1.2,1.2-2.6,1.8-4.3,1.8c-1.7,0-3.1-0.6-4.4-1.8c-1.3-1.2-1.9-2.6-1.9-4.3V67.6c0-2,0.7-3.7,2.1-5.1
		c1.4-1.4,3.1-2.1,5.1-2.1c4.7,0,8.3,2.1,10.8,6.3l60.8,106c0,0.2,0.1,0.3,0.3,0.3c0.3,0,0.5-0.1,0.5-0.3l60.8-106
		c2.3-4.2,5.9-6.3,10.8-6.3c2,0,3.8,0.7,5.3,2.1c1.5,1.4,2.3,3.1,2.3,5.1v169c0,1.8-0.6,3.3-1.8,4.5c-1.2,1.2-2.7,1.8-4.5,1.8
		c-1.8,0-3.3-0.6-4.5-1.8c-1.2-1.2-1.8-2.7-1.8-4.5V80.1c0-0.2-0.1-0.3-0.3-0.3h-0.5l-57,99.3c-2.3,3.7-5.4,5.5-9.3,5.5
		c-3.8,0-6.9-1.8-9.3-5.5l-56.8-99.3h-0.5c-0.2,0-0.3,0.1-0.3,0.3v156.7C564.1,238.5,563.5,239.9,562.3,241.1z"/>
	<path d="M802.3,161.6l-59.8-95c-1-1.3-1.1-2.7-0.3-4.1c0.8-1.4,2.1-2.1,3.8-2.1c4.8,0,8.6,2.1,11.3,6.3l52.3,85.5
		c0,0.2,0.2,0.3,0.5,0.3c0.2,0,0.3-0.1,0.3-0.3l52.5-85.5c2.5-4.2,6.2-6.3,11-6.3c1.5,0,2.7,0.7,3.5,2c0.8,1.3,0.8,2.7,0,4l-60,95.3
		c-0.7,1.2-1,2.5-1,4v70.7c0,1.7-0.7,3.2-2,4.5c-1.3,1.3-2.9,2-4.6,2s-3.3-0.7-4.5-2c-1.3-1.3-1.9-2.8-1.9-4.5v-70.7
		C803.3,164.1,803,162.8,802.3,161.6z"/>
</g>
<g class="st0">
	<path d="M562.6,461.1c-1.2,1.2-2.7,1.8-4.5,1.8c-1.8,0-3.3-0.6-4.5-1.8c-1.2-1.2-1.8-2.7-1.8-4.5v-162c0-3.8,1.4-7.2,4.3-10
		c2.8-2.8,6.2-4.3,10-4.3h81.3c1.5,0,2.8,0.5,3.8,1.6c1,1.1,1.5,2.4,1.5,3.9s-0.5,2.8-1.5,3.8s-2.3,1.5-3.8,1.5h-80.8
		c-1.5,0-2.3,0.8-2.3,2.3v65.5c0,1.5,0.8,2.3,2.3,2.3h75.8c1.5,0,2.8,0.5,3.8,1.5s1.5,2.3,1.5,3.8s-0.5,2.8-1.5,3.8
		s-2.3,1.5-3.8,1.5h-75.8c-1.5,0-2.3,0.7-2.3,2v83C564.3,458.4,563.8,459.9,562.6,461.1z"/>
	<path d="M668.1,462.8c-1.7,0-2.9-0.7-3.8-2c-0.8-1.3-1-2.8-0.5-4.3l61-169.3c0.8-2.2,2.1-3.9,3.9-5.1s3.8-1.9,6.1-1.9
		c2.3,0,4.4,0.6,6.3,1.9c1.8,1.3,3.1,3,3.8,5.1l61,169.3c0.5,1.5,0.3,2.9-0.5,4.3c-0.8,1.3-2.1,2-3.8,2c-2,0-3.8-0.6-5.5-1.8
		c-1.7-1.2-2.8-2.7-3.5-4.5l-17.3-49.5c-0.5-1.3-1.5-2-3-2h-75.5c-1.3,0-2.3,0.7-2.8,2l-17.3,49.5
		C675.5,460.8,672.6,462.8,668.1,462.8z M734.3,291.6l-35.3,101c-0.2,0.5-0.1,1,0.3,1.4c0.3,0.4,0.8,0.6,1.3,0.6h68.3
		c1.2,0,1.6-0.7,1.3-2l-35-101c0-0.2-0.2-0.3-0.5-0.3C734.4,291.3,734.3,291.4,734.3,291.6z"/>
	<path d="M846.3,461.1c-1.2,1.2-2.7,1.8-4.5,1.8c-1.8,0-3.3-0.6-4.5-1.8c-1.2-1.2-1.8-2.7-1.8-4.5V295.8c0-4.2,1.3-7.8,3.9-10.9
		c2.6-3.1,6-4.9,10.1-5.4c11-1.2,20.8-1.8,29.3-1.8c23,0,40.3,4.2,51.9,12.6c11.6,8.4,17.4,20.6,17.4,36.6c0,25.5-14,41.2-42,47
		c-0.2,0-0.3,0.1-0.3,0.3c0,0.3,0.1,0.5,0.3,0.5c4.2,2,8,5.5,11.5,10.4c3.5,4.9,7.8,13.1,12.8,24.6l20.3,47c0.7,1.3,0.5,2.7-0.4,4
		c-0.9,1.3-2.1,2-3.6,2c-4.5,0-7.6-2-9.3-6l-19.3-45.5c-2.8-6.7-5.2-11.8-7.1-15.3c-1.9-3.5-4-6.6-6.1-9.4c-2.2-2.8-4.8-4.6-7.8-5.5
		c-3-0.9-6.2-1.6-9.5-2c-3.3-0.4-8.2-0.6-14.5-0.6h-22.8c-1.5,0-2.3,0.8-2.3,2.3v75.8C848.1,458.4,847.5,459.9,846.3,461.1z
		 M848.1,293.3v72.8c0,1.3,0.8,2,2.3,2h22.8c21.7,0,37.5-3.3,47.6-10c10.1-6.7,15.1-16.8,15.1-30.3c0-26.2-19.3-39.3-57.8-39.3
		c-9.5,0-18.8,0.8-27.8,2.3C848.8,291.2,848.1,292,848.1,293.3z"/>
	<path d="M995.3,461.1c-1.2,1.2-2.6,1.8-4.3,1.8c-1.7,0-3.1-0.6-4.4-1.8c-1.3-1.2-1.9-2.6-1.9-4.3V287.6c0-2,0.7-3.7,2.1-5.1
		c1.4-1.4,3.1-2.1,5.1-2.1c4.7,0,8.3,2.1,10.8,6.3l60.8,106c0,0.2,0.1,0.3,0.3,0.3c0.3,0,0.5-0.1,0.5-0.3l60.8-106
		c2.3-4.2,5.9-6.3,10.8-6.3c2,0,3.8,0.7,5.3,2.1c1.5,1.4,2.3,3.1,2.3,5.1v169c0,1.8-0.6,3.3-1.8,4.5c-1.2,1.2-2.7,1.8-4.5,1.8
		c-1.8,0-3.3-0.6-4.5-1.8c-1.2-1.2-1.8-2.7-1.8-4.5V300.1c0-0.2-0.1-0.3-0.3-0.3h-0.5l-57,99.3c-2.3,3.7-5.4,5.5-9.3,5.5
		c-3.8,0-6.9-1.8-9.3-5.5l-56.8-99.3h-0.5c-0.2,0-0.3,0.1-0.3,0.3v156.8C997.1,458.5,996.5,459.9,995.3,461.1z"/>
</g>
</svg>
