<svg id="Layer_1" data-name="Layer 1" xmlns="http://www.w3.org/2000/svg" xmlns:xlink="http://www.w3.org/1999/xlink" width="730.62" height="597.03" viewBox="0 0 730.62 597.03">
  <defs>
    <linearGradient id="linear-gradient" x1="637.48" y1="453.45" x2="466.5" y2="775.18" gradientTransform="translate(0 -170)" gradientUnits="userSpaceOnUse">
      <stop offset="0" stop-opacity="0"/>
      <stop offset="0.91" stop-opacity="0.8"/>
      <stop offset="1"/>
    </linearGradient>
    <linearGradient id="linear-gradient-2" x1="405.8" y1="100.59" x2="386.76" y2="362.03" xlink:href="#linear-gradient"/>
    <linearGradient id="linear-gradient-3" x1="357.58" y1="579.04" x2="362.09" y2="509.22" gradientTransform="matrix(1, 0, 0, -1, 0, 600)" gradientUnits="userSpaceOnUse">
      <stop offset="0.01"/>
      <stop offset="0.1" stop-opacity="0.77"/>
      <stop offset="0.99" stop-opacity="0"/>
    </linearGradient>
    <linearGradient id="linear-gradient-4" x1="307.07" y1="511.96" x2="-264.01" y2="513.64" xlink:href="#linear-gradient"/>
    <linearGradient id="linear-gradient-5" x1="710.53" y1="296.1" x2="254.4" y2="367.06" gradientTransform="matrix(1, 0, 0, 1, 0, 0)" xlink:href="#linear-gradient"/>
    <linearGradient id="linear-gradient-6" x1="432.31" y1="295.53" x2="434.19" y2="324.06" gradientTransform="translate(0 -170)" gradientUnits="userSpaceOnUse">
      <stop offset="0" stop-color="#183866"/>
      <stop offset="1" stop-color="#1a7fc1"/>
    </linearGradient>
    <linearGradient id="linear-gradient-7" x1="432.31" y1="369.4" x2="434.19" y2="397.94" xlink:href="#linear-gradient-6"/>
    <linearGradient id="linear-gradient-8" x1="446.06" y1="369.4" x2="447.93" y2="397.94" xlink:href="#linear-gradient-6"/>
    <linearGradient id="linear-gradient-9" x1="459.89" y1="369.4" x2="461.76" y2="397.94" xlink:href="#linear-gradient-6"/>
    <linearGradient id="linear-gradient-10" x1="432.3" y1="518.17" x2="434.18" y2="546.71" xlink:href="#linear-gradient-6"/>
    <linearGradient id="linear-gradient-11" x1="446.06" y1="518.17" x2="447.93" y2="546.71" xlink:href="#linear-gradient-6"/>
    <linearGradient id="linear-gradient-12" x1="459.89" y1="518.17" x2="461.76" y2="546.71" xlink:href="#linear-gradient-6"/>
    <linearGradient id="linear-gradient-13" x1="703.16" y1="402.81" x2="610.33" y2="366.61" gradientTransform="translate(0 -170)" gradientUnits="userSpaceOnUse">
      <stop offset="0" stop-color="#ecc4d7"/>
      <stop offset="0.16" stop-color="#edcbd5"/>
      <stop offset="0.42" stop-color="#efd4d1"/>
      <stop offset="0.7" stop-color="#f2eac9"/>
    </linearGradient>
    <linearGradient id="linear-gradient-14" x1="584" y1="430.92" x2="600.93" y2="430.92" gradientTransform="translate(0 -170)" gradientUnits="userSpaceOnUse">
      <stop offset="0" stop-color="#ecc4d7"/>
      <stop offset="0.42" stop-color="#efd4d1"/>
      <stop offset="1" stop-color="#f2eac9"/>
    </linearGradient>
    <linearGradient id="linear-gradient-15" x1="590.36" y1="488.74" x2="604.49" y2="488.74" xlink:href="#linear-gradient-14"/>
    <linearGradient id="linear-gradient-16" x1="638.95" y1="418.78" x2="600.42" y2="464.03" xlink:href="#linear-gradient-14"/>
    <linearGradient id="linear-gradient-17" x1="140.4" y1="49.02" x2="146.6" y2="102.52" gradientTransform="matrix(1, 0, 0, -1, 0, 600)" gradientUnits="userSpaceOnUse">
      <stop offset="0.1" stop-opacity="0.77"/>
      <stop offset="0.99" stop-opacity="0"/>
    </linearGradient>
    <linearGradient id="linear-gradient-18" x1="163.84" y1="130.91" x2="132.02" y2="134.01" xlink:href="#linear-gradient-17"/>
    <linearGradient id="linear-gradient-19" x1="123.02" y1="129.86" x2="121.92" y2="58.46" gradientTransform="matrix(1, 0, 0, -1, 0, 600)" gradientUnits="userSpaceOnUse">
      <stop offset="0.36" stop-opacity="0.77"/>
      <stop offset="0.99" stop-opacity="0"/>
    </linearGradient>
    <linearGradient id="linear-gradient-20" x1="120.08" y1="69.76" x2="121.21" y2="31.84" xlink:href="#linear-gradient-3"/>
    <linearGradient id="linear-gradient-21" x1="158.89" y1="64.27" x2="134.39" y2="18.38" xlink:href="#linear-gradient-3"/>
    <linearGradient id="linear-gradient-22" x1="160.26" y1="97.54" x2="145.91" y2="47.98" xlink:href="#linear-gradient-17"/>
  </defs>
  <title>calendar</title>
  <path d="M158.65,127.55C115.48,150.61,71,174.76,40.91,213.38,22.84,236.6,10.8,264.24,4.46,293-6.4,342.09,1.64,399,39,432.76c13,11.8,28.9,20.13,45.3,26.53a243,243,0,0,0,106.91,15.85c29.87-2.33,59.69-10.2,89.41-6.45,36.25,4.56,67.9,25.76,101.67,39.72A265.41,265.41,0,0,0,515,526.51c11.36-1.38,22.86-3.59,32.85-9.17,11.86-6.63,20.65-17.46,30-27.36a261.61,261.61,0,0,1,73.46-54.69c14.43-7.22,29.72-13.21,42.25-23.37,33-26.7,38.65-74.48,36.73-116.85s-11.47-89.14-45.38-114.87c-7.57-5.74-16.09-10.19-23.43-16.24C637,143.78,629.68,110,614,82.39,578.84,20.65,500.39-6.38,429.76,1.26,328.55,12.21,245.66,81.08,158.65,127.55Z" transform="translate(0 0)" fill="#10ac84" opacity="0.18" style="isolation: isolate"/>
  <rect x="175" y="50.48" width="409.59" height="474.37" fill="#10ac84"/>
  <rect x="175" y="50.48" width="409.59" height="474.37" fill="url(#linear-gradient-2)"/>
  <path d="M528.3,73.41,175,105.08c1.59,0,0-44,0-54.6H547.5V54.2A19.21,19.21,0,0,1,528.3,73.41Z" transform="translate(0 0)" fill="url(#linear-gradient-3)"/>
  <rect x="175" y="105.08" width="409.59" height="474.37" fill="#10ac84"/>
  <rect x="175" y="105.08" width="58.23" height="474.37" fill="url(#linear-gradient-4)"/>
  <rect x="197.86" y="193.74" width="70.75" height="70.75" fill="#fff"/>
  <rect x="272.54" y="193.74" width="70.75" height="70.75" fill="#fff"/>
  <rect x="347.23" y="193.74" width="70.75" height="70.75" fill="#fff"/>
  <rect x="421.91" y="193.74" width="70.75" height="70.75" fill="#fff"/>
  <rect x="197.86" y="267.6" width="70.75" height="70.75" fill="#fff"/>
  <rect x="272.54" y="267.6" width="70.75" height="70.75" fill="#fff"/>
  <rect x="347.23" y="267.6" width="70.75" height="70.75" fill="#fff"/>
  <rect x="421.91" y="267.6" width="70.75" height="70.75" fill="#fff"/>
  <rect x="197.86" y="341.46" width="70.75" height="70.75" fill="#fff"/>
  <rect x="272.54" y="341.46" width="70.75" height="70.75" fill="#fff"/>
  <rect x="347.23" y="341.46" width="70.75" height="70.75" fill="#fff"/>
  <rect x="421.91" y="341.46" width="70.75" height="70.75" fill="#fff"/>
  <rect x="197.86" y="415.32" width="70.75" height="70.75" fill="#fff"/>
  <rect x="272.54" y="415.32" width="70.75" height="70.75" fill="#fff"/>
  <rect x="347.23" y="415.32" width="70.75" height="70.75" fill="#fff"/>
  <rect x="421.91" y="415.32" width="70.75" height="70.75" fill="#fff"/>
  <rect x="197.86" y="489.18" width="70.75" height="70.75" fill="#fff"/>
  <rect x="272.54" y="489.18" width="70.75" height="70.75" fill="#fff"/>
  <rect x="347.23" y="489.18" width="70.75" height="70.75" fill="#fff"/>
  <rect x="495.34" y="193.74" width="70.75" height="70.75" fill="#fff"/>
  <rect x="495.34" y="119.88" width="70.75" height="70.75" fill="#fff"/>
  <rect x="421.91" y="119.88" width="70.75" height="70.75" fill="#fff"/>
  <rect x="495.34" y="267.6" width="70.75" height="70.75" fill="#fff"/>
  <rect x="495.34" y="341.46" width="70.75" height="70.75" fill="#fff"/>
  <rect x="495.34" y="415.32" width="70.75" height="70.75" fill="#fff"/>
  <path d="M206.73,31.3V69.66c0,2.07,2.63,3.75,5.86,3.75h0c3.24,0,5.86-1.68,5.86-3.75V31.3c0-2.07-2.62-3.75-5.86-3.75h0C209.36,27.55,206.73,29.23,206.73,31.3Z" transform="translate(0 0)" fill="#10ac84"/>
  <path d="M262.75,31.3V69.66c0,2.07,2.62,3.75,5.86,3.75h0c3.24,0,5.86-1.68,5.86-3.75V31.3c0-2.07-2.62-3.75-5.86-3.75h0C265.37,27.55,262.75,29.23,262.75,31.3Z" transform="translate(0 0)" fill="#10ac84"/>
  <path d="M318.77,31.3V69.66c0,2.07,2.62,3.75,5.86,3.75h0c3.24,0,5.86-1.68,5.86-3.75V31.3c0-2.07-2.62-3.75-5.86-3.75h0C321.39,27.55,318.77,29.23,318.77,31.3Z" transform="translate(0 0)" fill="#10ac84"/>
  <path d="M374.79,31.3V69.66c0,2.07,2.62,3.75,5.86,3.75h0c3.23,0,5.86-1.68,5.86-3.75V31.3c0-2.07-2.63-3.75-5.86-3.75h0C377.41,27.55,374.79,29.23,374.79,31.3Z" transform="translate(0 0)" fill="#10ac84"/>
  <path d="M430.8,31.3V69.66c0,2.07,2.63,3.75,5.87,3.75h0c3.23,0,5.86-1.68,5.86-3.75V31.3c0-2.07-2.63-3.75-5.86-3.75h0C433.43,27.55,430.8,29.23,430.8,31.3Z" transform="translate(0 0)" fill="#10ac84"/>
  <path d="M486.82,31.3V69.66c0,2.07,2.63,3.75,5.86,3.75h0c3.24,0,5.87-1.68,5.87-3.75V31.3c0-2.07-2.63-3.75-5.87-3.75h0C489.45,27.55,486.82,29.23,486.82,31.3Z" transform="translate(0 0)" fill="#10ac84"/>
  <path d="M541.64,31.3V69.66c0,2.07,2.63,3.75,5.86,3.75h0c3.24,0,5.86-1.68,5.86-3.75V31.3c0-2.07-2.62-3.75-5.86-3.75h0C544.27,27.55,541.64,29.23,541.64,31.3Z" transform="translate(0 0)" fill="#10ac84"/>
  <rect x="584.6" y="50.48" width="9.32" height="528.97" fill="#10ac84"/>
  <rect x="584.6" y="50.48" width="9.32" height="528.97" fill="url(#linear-gradient-5)"/>
  <path d="M438.25,130.25a5.63,5.63,0,1,1-5.64-5.62h0A5.64,5.64,0,0,1,438.25,130.25Z" transform="translate(0 0)" fill="url(#linear-gradient-6)"/>
  <path d="M438.25,204.12a5.63,5.63,0,1,1-5.64-5.62h0A5.64,5.64,0,0,1,438.25,204.12Z" transform="translate(0 0)" fill="url(#linear-gradient-7)"/>
  <path d="M452,204.12a5.63,5.63,0,1,1-5.64-5.62h0A5.64,5.64,0,0,1,452,204.12Z" transform="translate(0 0)" fill="url(#linear-gradient-8)"/>
  <path d="M465.83,204.12a5.63,5.63,0,1,1-5.64-5.62h0A5.64,5.64,0,0,1,465.83,204.12Z" transform="translate(0 0)" fill="url(#linear-gradient-9)"/>
  <path d="M438.25,352.9a5.63,5.63,0,1,1-5.63-5.63h0a5.62,5.62,0,0,1,5.62,5.62Z" transform="translate(0 0)" fill="url(#linear-gradient-10)"/>
  <circle cx="209.74" cy="352.9" r="5.62" fill="#ff2235"/>
  <path d="M452,352.9a5.63,5.63,0,1,1-5.63-5.63h0a5.62,5.62,0,0,1,5.62,5.62Z" transform="translate(0 0)" fill="url(#linear-gradient-11)"/>
  <path d="M465.83,352.9a5.63,5.63,0,1,1-5.63-5.63h0a5.62,5.62,0,0,1,5.62,5.62Z" transform="translate(0 0)" fill="url(#linear-gradient-12)"/>
  
  
  
  
  
  <path d="M365.28,450l10.08,15.66a3.14,3.14,0,0,0,4.33.94,3.42,3.42,0,0,0,.67-.59l27.76-32a3.12,3.12,0,0,0-2.35-5.17h-.23a3.12,3.12,0,0,0-2.4,1.12l-21.72,26a3.12,3.12,0,0,1-4.38.41,3.18,3.18,0,0,1-.62-.7l-5.91-9a3.13,3.13,0,0,0-3.08-1.37h0a3.11,3.11,0,0,0-2.15,4.66Z" transform="translate(0 0)" fill="#10ac84"/>
  <path d="M243.91,529.19l12.69,12.49a3.16,3.16,0,0,1-2.22,5.41h-.54a3.19,3.19,0,0,1-2.24-.92l-12.35-12.36a3.17,3.17,0,0,0-4.47,0l-12.35,12.36a3.15,3.15,0,0,1-2.23.92h-.55a3.16,3.16,0,0,1-2.22-5.41l12.7-12.49a3.14,3.14,0,0,0,0-4.44h0l-12.82-12.82a3.16,3.16,0,0,1,2.23-5.39h0a3.14,3.14,0,0,1,2.21.9l13,12.82a3.16,3.16,0,0,0,4.43,0l13-12.82a3.14,3.14,0,0,1,2.21-.9h0a3.16,3.16,0,0,1,2.24,5.39l-12.82,12.82a3.14,3.14,0,0,0,.06,4.44h0Z" transform="translate(0 0)" fill="#10ac84"/>
  
  <path d="M114,579,56.64,590a3.52,3.52,0,1,0,.56,7l.17,0H705.23a3.51,3.51,0,0,0,.49-7l-83.61-10.52h-.48l-506.9-.5A3.57,3.57,0,0,0,114,579Z" transform="translate(0 0)" fill="#1d2741" opacity="0.18" style="isolation: isolate"/>
</svg>
